P3
5 4
255
255 255 255 
255 255 255 
255 255 255 
255 255 255 
255 255 255 
0 0 0 
100 100 100 
100 100 100 
100 100 100 
200 200 200 
200 200 200 
200 200 200 
120 120 120 
120 120 120 
120 120 120 
20 20 20 
30 30 30 
50 50 50 
120 120 120 
120 120 120 
