P3
5 4
255
6 37 69 
12 81 80 
43 80 87 
106 100 92 
100 94 94 
37 39 43 
44 100 74 
54 101 102 
85 80 121 
73 53 115 
58 33 8 
55 87 39 
48 101 79 
57 71 107 
54 29 94 
31 16 5 
26 43 21 
30 61 44 
47 64 65 
52 37 59 
