P3
5 4
255
255 255 255 
0 0 0 
255 255 255 
0 0 0 
255 255 255 
0 0 0 
100 100 100 
100 100 100 
100 100 100 
200 200 200 
0 0 0 
0 0 0 
120 120 120 
120 120 120 
120 120 120 
10 10 10 
30 30 30 
50 50 50 
60 60 60 
120 120 120 
