P3
5 4
255
0 50 255 
0 255 0 
0 50 255 
255 255 0 
255 255 255 
0 50 0 
100 150 100 
0 150 100 
100 50 100 
0 50 200 
200 50 0 
0 250 0 
120 170 120 
0 170 120 
120 50 120 
20 60 10 
10 70 30 
30 90 50 
60 170 60 
120 110 120 
