P3
5 4
255
18 18 18 
182 182 182 
18 18 18 
236 236 236 
255 255 255 
0 0 0 
100 100 100 
78 78 78 
28 28 28 
14 14 14 
42 42 42 
143 143 143 
120 120 120 
94 94 94 
34 34 34 
12 12 12 
18 18 18 
38 38 38 
102 102 102 
77 77 77 
