P3
5 4
255
18 18 18 
182 182 182 
18 18 18 
236 236 236 
254 254 254 
0 0 0 
99 99 99 
78 78 78 
28 28 28 
14 14 14 
42 42 42 
143 143 143 
119 119 119 
94 94 94 
34 34 34 
12 12 12 
18 18 18 
38 38 38 
102 102 102 
77 77 77 
