P3
5 4
255
255 255 255 
255 255 0 
0 0 255 
0 255 0 
0 0 255 
0 0 200 
100 0 100 
0 100 100 
100 100 100 
0 0 0 
120 0 120 
0 120 120 
120 120 120 
0 200 0 
200 0 0 
120 60 120 
60 120 60 
30 40 50 
10 20 30 
20 10 10 
