P3
5 4
255
0 35 220 
0 218 133 
26 89 197 
255 244 168 
255 255 241 
51 100 15 
119 196 232 
39 255 134 
244 111 255 
139 100 255 
213 19 0 
68 205 5 
74 192 109 
61 97 255 
109 0 174 
41 21 0 
70 58 16 
0 151 41 
131 153 127 
135 88 125 
