P3
5 4
255
48 42 33 
196 174 136 
48 42 33 
255 255 205 
255 255 238 
0 0 0 
135 120 93 
95 85 66 
58 51 40 
37 33 26 
78 69 54 
153 137 106 
162 144 112 
114 102 79 
69 62 48 
17 15 12 
24 22 17 
52 46 36 
127 113 88 
115 103 80 
