P3
5 4
255
127 127 127 
255 255 255 
127 127 127 
255 255 254 
127 127 125 
0 0 0 
250 250 250 
150 150 150 
150 150 150 
100 100 100 
200 200 200 
200 200 200 
45 45 44 
180 180 180 
180 180 180 
35 35 35 
45 45 45 
95 95 95 
210 210 210 
240 240 240 
