P3
5 4
255
0 255 50 
0 0 255 
0 255 50 
255 0 255 
255 255 255 
0 0 50 
100 100 150 
0 100 150 
100 100 50 
0 200 50 
200 0 50 
0 0 250 
120 120 170 
0 120 170 
120 120 50 
20 10 60 
10 30 70 
30 50 90 
60 60 170 
120 120 110 
