P3
5 4
255
50 0 255 
50 255 0 
50 0 255 
255 255 0 
255 255 255 
50 0 0 
150 100 100 
50 100 100 
150 0 100 
50 0 200 
250 0 0 
50 200 0 
170 120 120 
50 120 120 
170 0 120 
70 10 10 
60 20 30 
80 40 50 
110 120 60 
170 60 120 
