P3
3 2
255
100 100 255 
100 255 100 
100 100 255 
255 255 100 
255 255 255 
100 100 100 
