P3
5 4
255
0 0 255 
0 255 50 
0 0 255 
255 255 50 
255 255 255 
0 0 50 
100 100 150 
0 100 150 
100 0 150 
0 0 250 
200 0 50 
0 200 50 
120 120 170 
0 120 170 
120 0 170 
20 10 60 
10 20 80 
30 40 100 
60 120 110 
120 60 170 
