P3
3 2
255
10 10 255 
10 255 10 
10 10 255 
255 255 10 
255 255 255 
10 10 10 
